<?xml version="1.0" standalone="no"?><!DOCTYPE svg PUBLIC "-//W3C//DTD SVG 1.1//EN" "http://www.w3.org/Graphics/SVG/1.1/DTD/svg11.dtd"><svg t="1620797075156" class="icon" viewBox="0 0 1054 1024" version="1.1" xmlns="http://www.w3.org/2000/svg" p-id="873" xmlns:xlink="http://www.w3.org/1999/xlink" width="205.859375" height="200"><defs><style type="text/css"></style></defs><path d="M871.77671077 771.2950048c-15.19616-233.01688853-35.45770667-602.80490667-35.45770667-602.80490667 0-20.2626848-20.2626848-30.39345813-35.45998187-30.39345813H279.10485369c5.06538667-50.65614187 5.06538667-81.0496 5.06538667-81.0496 0-15.19616 15.19616-30.39345813 30.39345708-30.39345813h653.45991145c15.19729813 0 30.39345813 10.13077333 30.39345814 30.39345813 0 0 40.52536853 683.85450667 40.52536853 688.91989333 0 20.26154667-15.19729813 30.39345813-30.39345812 30.39345814H871.77671077z" fill="#3863FF" p-id="874"></path><path d="M780.59747556 224.21048853s40.52423147 683.85450667 40.52423147 688.92103147c0 20.26154667-15.19616 30.39345813-30.39345814 30.39345813H51.15448889c-20.2626848 0-30.39345813-15.19729813-30.39345812-30.39345813l40.52423146-683.85450667c0-15.19616 15.19729813-30.39345813 30.39345813-30.39345813h653.45991041c20.26382187-5.06538667 30.3945952 10.13077333 35.45998292 25.32693333zM218.31680036 371.11466667c0 131.7046048 70.91768853 202.62343147 202.62343041 202.62343146s202.62343147-70.91768853 202.62343146-202.62343146c0-30.39345813-20.26154667-50.65614187-50.65500479-50.65614187s-50.65614187 20.2626848-50.65614188 50.65614187c0 70.91768853-30.39345813 101.31114667-101.31228479 101.31114666s-101.31114667-30.39345813-101.31114667-101.31114666c0-30.39345813-20.2626848-50.65614187-50.65614187-50.65614187s-50.65614187 20.2626848-50.65614187 50.65614187z" fill="#3863FF" p-id="875"></path></svg>