<?xml version="1.0" standalone="no"?><!DOCTYPE svg PUBLIC "-//W3C//DTD SVG 1.1//EN" "http://www.w3.org/Graphics/SVG/1.1/DTD/svg11.dtd"><svg t="1614042993300" class="icon" viewBox="0 0 1054 1024" version="1.1" xmlns="http://www.w3.org/2000/svg" p-id="3149" xmlns:xlink="http://www.w3.org/1999/xlink" width="205.859375" height="200"><defs><style type="text/css"></style></defs><path d="M850.86874971 725.65250029c-12.52125-191.99999971-29.21625-496.6959375-29.21625-496.6959375 0-16.69593779-16.69593779-25.04343779-29.21812471-25.04343779H362.52218779c4.17375-41.73937471 4.17375-66.7828125 4.17375-66.7828125 0-12.52125 12.52125-25.04343779 25.04343692-25.04343779h538.43437529c12.52218779 0 25.04343779 8.3475 25.04343779 25.04343779 0 0 33.39187471 563.47875 33.39187471 567.6525 0 16.695-12.52218779 25.04343779-25.04343779 25.04343779H850.86874971z" fill="#3863FF" p-id="3150"></path><path d="M775.739375 274.86874971s33.39093779 563.47875 33.39093779 567.65343779c0 16.695-12.52125 25.04343779-25.04343779 25.04343779H174.696875c-16.69593779 0-25.04343779-12.52218779-25.04343779-25.04343779l33.39093779-563.47875c0-12.52125 12.52218779-25.04343779 25.04343779-25.04343779h538.43437442c16.69687471-4.17375 25.04437471 8.3475 29.21812558 20.86875zM312.43437529 395.9140625c0 108.52125029 58.43437471 166.95656279 166.95656192 166.95656279s166.95656279-58.43437471 166.95656279-166.95656279c0-25.04343779-16.695-41.73937471-41.73843779-41.73937471s-41.73937471 16.69593779-41.73937471 41.73937471c0 58.43437471-25.04343779 83.4778125-83.47875029 83.4778125s-83.4778125-25.04343779-83.4778125-83.4778125c0-25.04343779-16.69593779-41.73937471-41.73937471-41.73937471s-41.73937471 16.69593779-41.73937471 41.73937471z" fill="#3863FF" p-id="3151"></path></svg>