<?xml version="1.0" standalone="no"?><!DOCTYPE svg PUBLIC "-//W3C//DTD SVG 1.1//EN" "http://www.w3.org/Graphics/SVG/1.1/DTD/svg11.dtd"><svg t="1620797166376" class="icon" viewBox="0 0 1024 1024" version="1.1" xmlns="http://www.w3.org/2000/svg" p-id="1269" xmlns:xlink="http://www.w3.org/1999/xlink" width="200" height="200"><defs><style type="text/css"></style></defs><path d="M947.355008 215.198502L578.165393 14.948613a112.524096 112.524096 0 0 0-112.012158 0L76.486078 215.198502a111.295444 111.295444 0 0 0-56.026556 96.469703v400.499777a111.295444 111.295444 0 0 0 56.026556 96.49018l389.667157 200.249889a112.626484 112.626484 0 0 0 112.012158 0l369.189615-200.249889a111.274966 111.274966 0 0 0 56.006079-96.49018V311.668205a111.274966 111.274966 0 0 0-56.006079-96.469703z m-668.386989 53.016357h169.021636V346.193341h-90.613126v74.57921h-78.40851v-152.557692z m153.397271 487.426946h-153.397271v-149.445106h78.40851v71.466624h74.988761v77.978482z m-20.477542-210.304362v-77.978482h220.543133v77.978482h-220.543133z m353.462862 210.304362H596.308496v-77.978482h90.654081v-74.57921h78.388033v152.557692z m0-337.98184h-78.388033V346.193341h-75.009239v-77.978482h153.397272v149.445106z" fill="#3863ff" p-id="1270"></path></svg>