<?xml version="1.0" encoding="utf-8"?>
<svg width="14px" height="14px" viewBox="0 0 14 14" version="1.1" xmlns:xlink="http://www.w3.org/1999/xlink" xmlns="http://www.w3.org/2000/svg">
  <path d="M4.30843 0L2.15353 0C0.96943 0 0 0.969336 0 2.15332L0 4.30664C0 5.49062 0.96943 6.45996 2.15353 6.45996L4.30706 6.45996C5.49116 6.45996 6.46059 5.49062 6.46059 4.30664L6.46059 2.15332C6.46196 0.969336 5.49253 0 4.30843 0ZM11.8478 0L9.69294 0C8.50884 0 7.53941 0.969336 7.53941 2.15332L7.53941 4.30664C7.53941 5.49062 8.50884 6.45996 9.69294 6.45996L11.8465 6.45996C13.0306 6.45996 14 5.49062 14 4.30664L14 2.15332C14.0014 0.969336 13.0319 0 11.8478 0ZM4.30843 7.53867L2.15353 7.53867C0.96943 7.53867 0 8.50801 0 9.69199L0 11.8453C0 13.0307 0.96943 14 2.15353 14L4.30706 14C5.49116 14 6.46059 13.0307 6.46059 11.8467L6.46059 9.69199C6.46196 8.50801 5.49253 7.53867 4.30843 7.53867ZM11.8478 7.53867L9.69294 7.53867C8.50884 7.53867 7.53941 8.50801 7.53941 9.69199L7.53941 11.8453C7.53941 13.0293 8.50884 13.9986 9.69294 13.9986L11.8465 13.9986C13.0306 13.9986 14 13.0293 14 11.8453L14 9.69199C14.0014 8.50801 13.0319 7.53867 11.8478 7.53867Z" id="形状" fill="#333333" stroke="none" />
</svg>