<?xml version="1.0" encoding="utf-8"?>
<svg width="13px" height="15px" viewBox="0 0 13 15" version="1.1" xmlns:xlink="http://www.w3.org/1999/xlink" xmlns="http://www.w3.org/2000/svg">
  <path d="M8.58455 8.26253C9.92143 7.51245 10.829 6.06358 10.829 4.40375C10.829 1.97627 8.88708 0 6.49856 0C4.11004 0 2.16811 1.97627 2.16811 4.40375C2.16811 6.06358 3.07569 7.51099 4.41257 8.26253C1.84829 9.14884 0 11.6203 0 14.5224C0 14.7861 0.210328 15 0.469637 15C0.728945 15 0.939273 14.7861 0.939273 14.5224C0.939273 11.4049 3.43296 8.86757 6.5 8.86757C9.56704 8.86757 12.0607 11.4035 12.0607 14.5224C12.0607 14.7861 12.2711 15 12.5304 15C12.7897 15 13 14.7861 13 14.5224C12.9971 11.6203 11.1488 9.14884 8.58455 8.26253L8.58455 8.26253ZM3.10594 4.40375C3.10594 2.5022 4.62722 0.953706 6.49856 0.953706C8.3699 0.953706 9.89118 2.50073 9.89118 4.40375C9.89118 6.30677 8.36846 7.85379 6.49856 7.85379C4.62866 7.85379 3.10594 6.30677 3.10594 4.40375Z" id="形状" fill="#3A83F8" stroke="none" />
</svg>