<?xml version="1.0" encoding="utf-8"?>
<svg width="11px" height="15px" viewBox="0 0 11 15" version="1.1" xmlns:xlink="http://www.w3.org/1999/xlink" xmlns="http://www.w3.org/2000/svg">
  <path d="M1.375 0.9375C1.122 0.9375 0.916667 1.14797 0.916667 1.40625L0.916667 13.5938C0.916667 13.852 1.122 14.0625 1.375 14.0625L9.625 14.0625C9.878 14.0625 10.0833 13.852 10.0833 13.5938L10.0833 1.40625C10.0833 1.14797 9.878 0.9375 9.625 0.9375L1.375 0.9375ZM9.625 15L1.375 15C0.616917 15 0 14.3691 0 13.5938L0 1.40625C0 0.630937 0.616917 0 1.375 0L9.625 0C10.3831 0 11 0.630937 11 1.40625L11 13.5938C11 14.3691 10.3831 15 9.625 15ZM6.41667 2.34375C6.6698 2.34375 6.875 2.13388 6.875 1.875C6.875 1.61612 6.6698 1.40625 6.41667 1.40625L4.58333 1.40625C4.3302 1.40625 4.125 1.61612 4.125 1.875C4.125 2.13388 4.3302 2.34375 4.58333 2.34375L6.41667 2.34375ZM5.5 13.5938C6.00508 13.5938 6.41667 13.1733 6.41667 12.6563C6.41667 12.1392 6.00508 11.7188 5.5 11.7188C4.99446 11.7188 4.58333 12.1392 4.58333 12.6563C4.58333 13.1733 4.99446 13.5938 5.5 13.5938Z" id="形状" fill="#3A83F8" stroke="none" />
</svg>